<svg xmlns="http://www.w3.org/2000/svg" width="768" height="244" viewBox="0 0 768 244" fill="none"><path d="M489.5 0.5L385 69L489.5 146V0.5Z" fill="#FF0000"></path><path d="M277.5 0.5V146.5L383.5 69L277.5 0.5Z" fill="#FF0000"></path><rect y="69" width="266" height="10" fill="#FF0000"></rect><rect x="502" y="69" width="266" height="10" fill="#FF0000"></rect><path d="M38.324 208.364C31.2147 208.364 25.0973 207.496 19.972 205.76C14.8467 203.941 10.796 202.288 7.82 200.8C8.48133 197.163 8.77067 193.401 8.688 189.516C8.688 185.548 8.192 181.621 7.2 177.736H11.54C11.9533 182.861 13.2347 187.449 15.384 191.5C17.616 195.468 20.6333 198.609 24.436 200.924C28.3213 203.156 32.9507 204.272 38.324 204.272C40.7213 204.272 43.2013 203.817 45.764 202.908C48.3267 201.916 50.476 200.345 52.212 198.196C54.0307 196.047 54.94 193.236 54.94 189.764C54.94 186.705 54.2787 184.184 52.956 182.2C51.716 180.216 49.4427 178.397 46.136 176.744C42.912 175.008 38.324 173.148 32.372 171.164C24.8493 168.601 19.104 165.543 15.136 161.988C11.168 158.351 9.184 153.225 9.184 146.612C9.184 142.313 10.2173 138.345 12.284 134.708C14.4333 130.988 17.5747 128.012 21.708 125.78C25.924 123.465 31.0493 122.308 37.084 122.308C40.3907 122.308 43.0773 122.639 45.144 123.3C47.2933 123.961 49.112 124.664 50.6 125.408C51.84 125.987 52.956 126.524 53.948 127.02C54.94 127.433 55.9733 127.64 57.048 127.64L61.016 126.896L61.388 127.144C61.2227 127.971 61.0987 128.963 61.016 130.12C60.9333 131.277 60.892 132.352 60.892 133.344C60.892 135.907 61.0573 138.428 61.388 140.908C61.8013 143.305 62.1733 145.289 62.504 146.86C62.9173 148.348 63.124 149.092 63.124 149.092H59.776C58.536 144.297 56.7587 140.247 54.444 136.94C52.212 133.551 49.608 130.947 46.632 129.128C43.656 127.309 40.3907 126.4 36.836 126.4C33.612 126.4 30.8427 127.103 28.528 128.508C26.296 129.913 24.6013 131.691 23.444 133.84C22.2867 135.989 21.708 138.221 21.708 140.536C21.708 143.429 22.2453 145.785 23.32 147.604C24.3947 149.423 26.42 151.076 29.396 152.564C32.4547 154.052 36.836 155.747 42.54 157.648C48.5747 159.632 53.328 161.781 56.8 164.096C60.272 166.411 62.752 169.056 64.24 172.032C65.728 175.008 66.472 178.563 66.472 182.696C66.472 187.904 65.2733 192.451 62.876 196.336C60.5613 200.139 57.296 203.115 53.08 205.264C48.864 207.331 43.9453 208.364 38.324 208.364ZM96.109 207.992C87.8423 207.992 83.709 202.991 83.709 192.988V156.284H75.773V152.936C81.3943 152.192 85.7343 150.291 88.793 147.232C91.8516 144.091 93.9183 139.709 94.993 134.088H98.217V152.192H112.477L111.237 156.284H98.217V191.996C98.217 195.137 98.713 197.245 99.705 198.32C100.697 199.312 101.978 199.808 103.549 199.808C104.706 199.808 106.029 199.519 107.517 198.94C109.088 198.361 110.658 197.617 112.229 196.708L113.965 199.932C110.658 202.577 107.434 204.603 104.293 206.008C101.152 207.331 98.4236 207.992 96.109 207.992ZM121.454 207V204.892L125.422 203.404C126.662 202.908 127.53 202.288 128.026 201.544C128.522 200.8 128.77 199.767 128.77 198.444V162.98C128.77 161.244 128.481 160.087 127.902 159.508C127.324 158.929 126.497 158.516 125.422 158.268L121.454 157.276V155.044C124.678 154.548 127.406 154.135 129.638 153.804C131.953 153.391 134.144 152.936 136.21 152.44C138.277 151.861 140.509 151.159 142.906 150.332L144.146 151.324C143.568 152.233 143.113 153.639 142.782 155.54C142.534 157.441 142.41 159.508 142.41 161.74V162.98L143.278 165.708V199.312C143.278 200.221 143.609 201.007 144.27 201.668C144.932 202.329 145.924 202.908 147.246 203.404L151.834 204.892V207H121.454ZM143.278 174.884L141.17 162.236L155.926 153.06C157.249 152.233 158.365 151.696 159.274 151.448C160.184 151.2 161.052 151.076 161.878 151.076C163.945 151.076 165.805 151.944 167.458 153.68C169.194 155.416 170.062 157.565 170.062 160.128C170.062 162.195 169.236 164.096 167.582 165.832C166.012 167.485 163.904 168.312 161.258 168.312C159.688 168.312 158.324 167.94 157.166 167.196C156.092 166.452 155.141 165.667 154.314 164.84C153.736 164.179 153.116 163.559 152.454 162.98C151.793 162.319 151.049 161.988 150.222 161.988C149.478 161.988 148.569 162.277 147.494 162.856C146.42 163.435 145.428 164.675 144.518 166.576C143.692 168.395 143.278 171.164 143.278 174.884ZM174.978 207V204.892L178.946 203.404C181.178 202.495 182.294 200.841 182.294 198.444V162.98C182.294 161.244 182.004 160.087 181.426 159.508C180.847 158.929 180.02 158.516 178.946 158.268L174.978 157.276V155.044C179.69 154.383 183.699 153.763 187.006 153.184C190.312 152.605 193.743 151.655 197.298 150.332L198.538 151.324C197.959 152.233 197.504 153.639 197.174 155.54C196.926 157.441 196.802 159.508 196.802 161.74V199.312C196.802 200.469 197.174 201.379 197.918 202.04C198.744 202.701 199.488 203.156 200.15 203.404L204.118 204.892V207H174.978ZM189.362 139.42C186.799 139.42 184.608 138.552 182.79 136.816C181.054 134.997 180.186 132.807 180.186 130.244C180.186 127.681 181.054 125.532 182.79 123.796C184.608 121.977 186.799 121.068 189.362 121.068C191.924 121.068 194.074 121.977 195.81 123.796C197.628 125.532 198.538 127.681 198.538 130.244C198.538 132.807 197.628 134.997 195.81 136.816C194.074 138.552 191.924 139.42 189.362 139.42ZM208.492 238V235.892L212.46 234.404C213.7 233.908 214.568 233.288 215.064 232.544C215.56 231.8 215.808 230.767 215.808 229.444V162.98C215.808 161.244 215.518 160.087 214.94 159.508C214.361 158.929 213.534 158.516 212.46 158.268L208.492 157.276V155.044C211.716 154.548 214.444 154.135 216.676 153.804C218.99 153.391 221.181 152.936 223.248 152.44C225.314 151.861 227.546 151.159 229.944 150.332L231.184 151.324C230.77 151.985 230.398 152.977 230.068 154.3C229.82 155.54 229.613 156.987 229.448 158.64H229.696L239.988 152.564C240.649 152.151 241.393 151.82 242.22 151.572C243.046 151.241 243.873 151.076 244.7 151.076C250.9 151.076 256.025 152.399 260.076 155.044C264.126 157.607 267.144 160.996 269.128 165.212C271.112 169.428 272.104 173.892 272.104 178.604C272.104 182.159 271.525 185.713 270.368 189.268C269.293 192.74 267.598 195.923 265.284 198.816C263.052 201.627 260.2 203.9 256.728 205.636C253.256 207.289 249.164 208.116 244.452 208.116C241.724 208.116 239.12 207.785 236.64 207.124C234.16 206.545 232.052 205.843 230.316 205.016V230.312C230.316 231.221 230.646 232.007 231.308 232.668C231.969 233.329 232.961 233.908 234.284 234.404L238.872 235.892V238H208.492ZM242.716 203.776C245.857 203.776 248.42 202.825 250.404 200.924C252.388 198.94 253.834 196.377 254.744 193.236C255.736 190.095 256.232 186.788 256.232 183.316C256.232 179.265 255.694 175.504 254.62 172.032C253.545 168.477 251.892 165.584 249.66 163.352C247.428 161.12 244.534 160.004 240.98 160.004C237.673 160.004 235.069 161.079 233.168 163.228C231.266 165.377 230.316 167.899 230.316 170.792V187.78C230.316 190.673 230.894 193.36 232.052 195.84C233.209 198.237 234.738 200.18 236.64 201.668C238.541 203.073 240.566 203.776 242.716 203.776ZM277.636 238V235.892L281.604 234.404C282.844 233.908 283.712 233.288 284.208 232.544C284.704 231.8 284.952 230.767 284.952 229.444V162.98C284.952 161.244 284.663 160.087 284.084 159.508C283.506 158.929 282.679 158.516 281.604 158.268L277.636 157.276V155.044C280.86 154.548 283.588 154.135 285.82 153.804C288.135 153.391 290.326 152.936 292.392 152.44C294.459 151.861 296.691 151.159 299.088 150.332L300.328 151.324C299.915 151.985 299.543 152.977 299.212 154.3C298.964 155.54 298.758 156.987 298.592 158.64H298.84L309.132 152.564C309.794 152.151 310.538 151.82 311.364 151.572C312.191 151.241 313.018 151.076 313.844 151.076C320.044 151.076 325.17 152.399 329.22 155.044C333.271 157.607 336.288 160.996 338.272 165.212C340.256 169.428 341.248 173.892 341.248 178.604C341.248 182.159 340.67 185.713 339.512 189.268C338.438 192.74 336.743 195.923 334.428 198.816C332.196 201.627 329.344 203.9 325.872 205.636C322.4 207.289 318.308 208.116 313.596 208.116C310.868 208.116 308.264 207.785 305.784 207.124C303.304 206.545 301.196 205.843 299.46 205.016V230.312C299.46 231.221 299.791 232.007 300.452 232.668C301.114 233.329 302.106 233.908 303.428 234.404L308.016 235.892V238H277.636ZM311.86 203.776C315.002 203.776 317.564 202.825 319.548 200.924C321.532 198.94 322.979 196.377 323.888 193.236C324.88 190.095 325.376 186.788 325.376 183.316C325.376 179.265 324.839 175.504 323.764 172.032C322.69 168.477 321.036 165.584 318.804 163.352C316.572 161.12 313.679 160.004 310.124 160.004C306.818 160.004 304.214 161.079 302.312 163.228C300.411 165.377 299.46 167.899 299.46 170.792V187.78C299.46 190.673 300.039 193.36 301.196 195.84C302.354 198.237 303.883 200.18 305.784 201.668C307.686 203.073 309.711 203.776 311.86 203.776ZM375.892 207.992C370.601 207.992 365.889 206.752 361.756 204.272C357.705 201.792 354.481 198.444 352.084 194.228C349.769 190.012 348.612 185.341 348.612 180.216C348.612 174.429 349.852 169.345 352.332 164.964C354.894 160.583 358.325 157.152 362.624 154.672C367.005 152.192 371.924 150.952 377.38 150.952C381.761 150.952 385.564 151.985 388.788 154.052C392.094 156.036 394.657 158.805 396.476 162.36C398.294 165.832 399.204 169.759 399.204 174.14C399.204 174.967 398.956 175.711 398.46 176.372C398.046 176.951 397.344 177.24 396.352 177.24H356.176V172.776L383.084 171.66C384.241 171.66 384.82 170.792 384.82 169.056C384.82 164.675 384.076 161.244 382.588 158.764C381.1 156.201 379.116 154.92 376.636 154.92C372.833 154.92 369.857 156.987 367.708 161.12C365.558 165.253 364.484 170.668 364.484 177.364C364.484 181.993 365.31 185.92 366.964 189.144C368.617 192.368 370.808 194.807 373.536 196.46C376.264 198.113 379.24 198.94 382.464 198.94C387.341 198.94 392.218 196.873 397.096 192.74L399.204 194.724C395.897 199.271 392.301 202.619 388.416 204.768C384.53 206.917 380.356 207.992 375.892 207.992ZM442.605 207V204.892L446.573 203.404C447.73 202.991 448.557 202.371 449.053 201.544C449.631 200.635 449.921 199.601 449.921 198.444V172.528C449.921 168.891 448.97 166.121 447.069 164.22C445.25 162.236 442.563 161.244 439.009 161.244C435.454 161.244 432.685 162.36 430.701 164.592C428.799 166.741 427.849 169.511 427.849 172.9L425.989 159.88H427.725C430.205 158.723 432.685 157.483 435.165 156.16C437.727 154.755 440.29 153.308 442.853 151.82C443.762 151.241 444.795 150.952 445.953 150.952C451.822 150.952 456.369 152.44 459.593 155.416C462.817 158.392 464.429 162.691 464.429 168.312V199.312C464.429 200.469 464.801 201.379 465.545 202.04C466.371 202.701 467.115 203.156 467.777 203.404L471.745 204.892V207H442.605ZM406.025 207V204.892L409.993 203.404C411.15 202.991 411.977 202.371 412.473 201.544C413.051 200.635 413.341 199.601 413.341 198.444V162.98C413.341 161.244 413.051 160.087 412.473 159.508C411.894 158.929 411.067 158.516 409.993 158.268L406.025 157.276V155.044C409.249 154.548 411.977 154.135 414.209 153.804C416.523 153.391 418.714 152.936 420.781 152.44C422.847 151.861 425.079 151.159 427.477 150.332L428.717 151.324C428.138 152.233 427.683 153.639 427.353 155.54C427.105 157.441 426.981 159.508 426.981 161.74V162.98L427.849 165.708V199.312C427.849 200.469 428.221 201.379 428.965 202.04C429.791 202.701 430.535 203.156 431.197 203.404L435.165 204.892V207H406.025ZM503.279 207.992C497.079 207.992 491.954 206.711 487.903 204.148C483.935 201.585 480.959 198.237 478.975 194.104C477.074 189.888 476.123 185.383 476.123 180.588C476.123 176.951 476.661 173.396 477.735 169.924C478.893 166.452 480.587 163.311 482.819 160.5C485.134 157.607 488.027 155.333 491.499 153.68C494.971 151.944 499.063 151.076 503.775 151.076C506.503 151.076 509.107 151.365 511.587 151.944C514.067 152.523 516.175 153.267 517.911 154.176V131.608C517.911 129.872 517.622 128.715 517.043 128.136C516.465 127.557 515.638 127.144 514.563 126.896L510.595 125.904V123.672C515.307 123.011 519.317 122.391 522.623 121.812C525.93 121.233 529.361 120.283 532.915 118.96L534.155 119.952C533.577 120.861 533.122 122.267 532.791 124.168C532.543 126.069 532.419 128.136 532.419 130.368V195.096C532.419 197.824 533.122 199.767 534.527 200.924C535.933 202.081 538.289 202.66 541.595 202.66V205.884C538.041 205.967 534.693 206.256 531.551 206.752C528.493 207.165 525.145 207.579 521.507 207.992L520.267 207.372L519.275 200.552H518.779L507.991 206.628C507.413 206.959 506.669 207.248 505.759 207.496C504.933 207.827 504.106 207.992 503.279 207.992ZM507.247 199.188C510.637 199.188 513.241 198.113 515.059 195.964C516.961 193.815 517.911 191.293 517.911 188.4V171.412C517.911 168.519 517.333 165.873 516.175 163.476C515.018 160.996 513.489 159.053 511.587 157.648C509.769 156.16 507.743 155.416 505.511 155.416C502.453 155.416 499.89 156.408 497.823 158.392C495.839 160.293 494.351 162.815 493.359 165.956C492.45 169.015 491.995 172.321 491.995 175.876C491.995 179.844 492.533 183.605 493.607 187.16C494.682 190.715 496.335 193.608 498.567 195.84C500.882 198.072 503.775 199.188 507.247 199.188ZM562.167 207.868C558.943 207.868 556.091 207.041 553.611 205.388C551.131 203.652 549.188 201.42 547.783 198.692C546.378 195.881 545.675 192.864 545.675 189.64C545.675 188.152 545.799 187.119 546.047 186.54C546.378 185.879 546.874 185.424 547.535 185.176L573.079 175.628C574.567 175.049 575.518 174.429 575.931 173.768C576.427 173.107 576.675 172.156 576.675 170.916V166.328C576.675 162.691 575.807 159.921 574.071 158.02C572.418 156.036 569.855 155.044 566.383 155.044C564.068 155.044 562.208 155.54 560.803 156.532C559.398 157.441 558.695 158.475 558.695 159.632C558.695 160.211 558.86 160.789 559.191 161.368C559.522 161.864 559.894 162.401 560.307 162.98C560.968 163.807 561.506 164.675 561.919 165.584C562.332 166.411 562.539 167.32 562.539 168.312C562.539 170.296 561.795 171.867 560.307 173.024C558.902 174.099 557.124 174.636 554.975 174.636C552.743 174.636 551.007 174.016 549.767 172.776C548.527 171.536 547.907 169.8 547.907 167.568C547.907 164.509 548.982 161.74 551.131 159.26C553.363 156.697 556.174 154.672 559.563 153.184C563.035 151.696 566.548 150.952 570.103 150.952C573.823 150.952 577.254 151.572 580.395 152.812C583.619 153.969 586.223 155.788 588.207 158.268C590.191 160.748 591.183 164.013 591.183 168.064V194.972C591.183 196.543 591.348 197.907 591.679 199.064C592.01 200.139 592.919 200.676 594.407 200.676C595.647 200.676 597.383 200.345 599.615 199.684V202.784C597.962 203.776 595.812 204.851 593.167 206.008C590.522 207.165 588.124 207.744 585.975 207.744C584.322 207.744 582.875 207.413 581.635 206.752C580.478 206.091 579.568 204.975 578.907 203.404C578.246 201.751 577.874 199.601 577.791 196.956V195.096L581.263 197.948C579.362 199.519 577.336 201.089 575.187 202.66C573.12 204.148 570.971 205.388 568.739 206.38C566.59 207.372 564.399 207.868 562.167 207.868ZM569.111 200.428C570.268 200.428 571.302 200.221 572.211 199.808C573.12 199.395 574.154 198.816 575.311 198.072C576.22 197.411 576.675 196.253 576.675 194.6V179.844C576.675 179.596 576.592 179.431 576.427 179.348C576.344 179.183 576.179 179.183 575.931 179.348L561.175 184.68C560.679 184.845 560.307 185.176 560.059 185.672C559.894 186.168 559.811 187.077 559.811 188.4C559.811 190.384 560.224 192.285 561.051 194.104C561.878 195.923 562.994 197.452 564.399 198.692C565.887 199.849 567.458 200.428 569.111 200.428ZM604.618 207V204.892L608.586 203.404C609.744 202.991 610.57 202.371 611.066 201.544C611.645 200.635 611.934 199.601 611.934 198.444V131.608C611.934 129.872 611.645 128.715 611.066 128.136C610.488 127.557 609.661 127.144 608.586 126.896L604.618 125.904V123.672C609.33 123.011 613.34 122.391 616.646 121.812C619.953 121.233 623.384 120.283 626.938 118.96L628.178 119.952C627.6 120.861 627.145 122.267 626.814 124.168C626.566 126.069 626.442 128.136 626.442 130.368V199.312C626.442 200.469 626.814 201.379 627.558 202.04C628.385 202.701 629.129 203.156 629.79 203.404L633.758 204.892V207H604.618ZM664.216 207.992C658.925 207.992 654.213 206.752 650.08 204.272C646.029 201.792 642.805 198.444 640.408 194.228C638.093 190.012 636.936 185.341 636.936 180.216C636.936 174.429 638.176 169.345 640.656 164.964C643.219 160.583 646.649 157.152 650.948 154.672C655.329 152.192 660.248 150.952 665.704 150.952C670.085 150.952 673.888 151.985 677.112 154.052C680.419 156.036 682.981 158.805 684.8 162.36C686.619 165.832 687.528 169.759 687.528 174.14C687.528 174.967 687.28 175.711 686.784 176.372C686.371 176.951 685.668 177.24 684.676 177.24H644.5V172.776L671.408 171.66C672.565 171.66 673.144 170.792 673.144 169.056C673.144 164.675 672.4 161.244 670.912 158.764C669.424 156.201 667.44 154.92 664.96 154.92C661.157 154.92 658.181 156.987 656.032 161.12C653.883 165.253 652.808 170.668 652.808 177.364C652.808 181.993 653.635 185.92 655.288 189.144C656.941 192.368 659.132 194.807 661.86 196.46C664.588 198.113 667.564 198.94 670.788 198.94C675.665 198.94 680.543 196.873 685.42 192.74L687.528 194.724C684.221 199.271 680.625 202.619 676.74 204.768C672.855 206.917 668.68 207.992 664.216 207.992ZM715.801 207.992C711.75 207.992 707.948 207.413 704.393 206.256C700.838 205.016 698.11 203.859 696.209 202.784C696.374 200.387 696.457 197.659 696.457 194.6C696.54 191.541 696.25 188.731 695.589 186.168H700.301C700.797 189.392 701.748 192.368 703.153 195.096C704.641 197.824 706.501 200.015 708.733 201.668C711.048 203.321 713.652 204.148 716.545 204.148C719.025 204.148 721.009 203.445 722.497 202.04C724.068 200.635 724.853 198.692 724.853 196.212C724.853 194.228 724.481 192.616 723.737 191.376C722.993 190.053 721.629 188.855 719.645 187.78C717.744 186.623 714.974 185.341 711.337 183.936C706.377 182.035 702.781 179.761 700.549 177.116C698.317 174.388 697.201 170.792 697.201 166.328C697.201 163.6 698.028 161.079 699.681 158.764C701.417 156.449 703.773 154.589 706.749 153.184C709.808 151.696 713.362 150.952 717.413 150.952C720.141 150.952 722.373 151.2 724.109 151.696C725.845 152.192 727.664 152.853 729.565 153.68H732.789C732.458 156.739 732.376 159.384 732.541 161.616C732.789 163.848 733.161 166.287 733.657 168.932H729.937C728.697 164.303 726.92 160.789 724.605 158.392C722.29 155.912 719.438 154.672 716.049 154.672C713.817 154.672 711.998 155.333 710.593 156.656C709.27 157.896 708.609 159.549 708.609 161.616C708.609 163.6 709.022 165.212 709.849 166.452C710.676 167.692 712.04 168.767 713.941 169.676C715.842 170.585 718.364 171.577 721.505 172.652C725.969 174.223 729.606 176.331 732.417 178.976C735.228 181.539 736.633 185.465 736.633 190.756C736.633 193.567 735.889 196.295 734.401 198.94C732.913 201.585 730.598 203.776 727.457 205.512C724.398 207.165 720.513 207.992 715.801 207.992Z" fill="#FF0000"></path><path d="M749.62 147.225C749.2 147.225 748.8 147.15 748.42 147C748.04 146.85 747.67 146.61 747.31 146.28C746.95 145.95 746.59 145.52 746.23 144.99C745.98 144.61 745.725 144.24 745.465 143.88C745.205 143.51 744.915 143.205 744.595 142.965C744.285 142.715 743.91 142.59 743.47 142.59H743.125V145.62C743.125 145.93 743.175 146.135 743.275 146.235C743.375 146.335 743.595 146.425 743.935 146.505L744.7 146.67V147H739.45V146.67L740.215 146.505C740.565 146.425 740.785 146.335 740.875 146.235C740.975 146.135 741.025 145.93 741.025 145.62V138.285C741.025 137.965 740.975 137.755 740.875 137.655C740.785 137.555 740.565 137.47 740.215 137.4L739.45 137.235V136.905H743.65C745.15 136.905 746.32 137.145 747.16 137.625C748.01 138.105 748.435 138.785 748.435 139.665C748.435 140.125 748.29 140.545 748 140.925C747.72 141.295 747.345 141.595 746.875 141.825C746.405 142.055 745.89 142.2 745.33 142.26V142.29C745.79 142.31 746.2 142.435 746.56 142.665C746.92 142.885 747.245 143.17 747.535 143.52C747.835 143.86 748.115 144.225 748.375 144.615C748.635 144.985 748.895 145.33 749.155 145.65C749.415 145.97 749.68 146.23 749.95 146.43C750.23 146.62 750.515 146.715 750.805 146.715V147.075C750.405 147.175 750.01 147.225 749.62 147.225ZM743.125 142.095H743.65C744.13 142.095 744.57 142.015 744.97 141.855C745.38 141.685 745.705 141.435 745.945 141.105C746.185 140.765 746.305 140.335 746.305 139.815C746.305 139.025 746.055 138.425 745.555 138.015C745.065 137.605 744.365 137.4 743.455 137.4H743.125V142.095Z" fill="#FF0000"></path><path d="M753.5 142C753.5 146.694 749.694 150.5 745 150.5C740.306 150.5 736.5 146.694 736.5 142C736.5 137.306 740.306 133.5 745 133.5C749.694 133.5 753.5 137.306 753.5 142Z" stroke="#FF0000"></path></svg>